<?xml version="1.0" encoding="UTF-8"?>
<svg id="Layer_1" xmlns="http://www.w3.org/2000/svg" version="1.1" viewBox="0 0 1036.7 1041.42">
  <defs>
    <style>
      .st0 {
        fill: #f29509;
      }

      .st0, .st1, .st2 {
        fill-rule: evenodd;
      }

      .st1 {
        fill: #396a1b;
      }

      .st2 {
        fill: #59a715;
      }
    </style>
  </defs>
  <path class="st1" d="M1025.63,357.04c-180.02,23.6-320.1,99.06-443.1,222.18-3.38,3.39-8.6,3.86-12.53,1.12-3.93-2.73-5.3-7.78-3.31-12.12l16.77-36.58c1.95-4.25.69-9.16-3.06-11.95-115.77-86.01-271.96-134.79-441.18-125.93-45.43,2.38-89.49,8.79-131.69,18.79-4.47,1.06-7.54,4.93-7.54,9.53v315.89c0,3.6,1.78,6.69,4.9,8.48l126.19,72.86c2.84,1.64,6.01,1.79,8.99.41,57.49-26.44,114.19-50.34,170.08-71.7,3.11-1.19,5.24-3.61,6.02-6.85.78-3.23,0-6.37-2.23-8.84-44.61-49.75-95.65-94.62-153.13-134.61-9.18-6.38-2.04-20.79,8.6-17.37,84.2,27.1,156.21,71.86,216.02,134.26,2.7,2.81,6.54,3.75,10.23,2.5,13.87-4.72,27.68-9.28,41.44-13.68,3.38-1.08,5.76-3.66,6.56-7.12.8-3.46-.2-6.82-2.76-9.28-33.41-32.07-69.85-61.85-109.33-89.31-9.17-6.38-2.04-20.79,8.6-17.37,65.57,21.1,123.74,52.92,174.52,95.43,2.54,2.13,5.69,2.81,8.88,1.94,87.26-23.96,217.24-53.68,300.28-64.29,12-1.53,15.45,16.09,3.75,19.19-173.1,45.78-393.5,134.76-571.55,242.07-3.05,1.84-4.77,4.92-4.74,8.48.03,3.57,1.81,6.61,4.9,8.39l84.87,49c3.4,1.96,7.39,1.77,10.58-.51,125.51-89.49,256.92-151.54,394.22-186.14,11.37-2.86,17.2,13.26,6.63,18.33-102.58,49.2-211.03,116.63-325.31,202.28-2.71,2.04-4.11,5.04-3.9,8.42.2,3.39,1.94,6.2,4.88,7.9l85.29,49.24c3.11,1.8,6.68,1.8,9.79,0l508.56-293.61c3.12-1.8,4.9-4.89,4.9-8.48v-371.22c0-2.92-1.14-5.44-3.34-7.36-2.2-1.92-4.84-2.73-7.73-2.35"/>
  <path class="st0" d="M195.07,0c68.72,0,124.43,55.71,124.43,124.43s-55.71,124.43-124.43,124.43-124.43-55.71-124.43-124.43S126.35,0,195.07,0"/>
  <path class="st2" d="M616.32,81.02c33.34,24.9,54.93,64.68,54.93,109.5s-21.59,84.59-54.93,109.49c-33.34-24.9-54.93-64.68-54.93-109.49s21.59-84.59,54.93-109.5"/>
  <path class="st2" d="M593.06,416.7c-74.81-.73-135.23-61.58-135.23-136.56,0-6.52.47-12.93,1.35-19.21,74.81.73,135.23,61.58,135.23,136.56,0,6.52-.47,12.93-1.35,19.21"/>
  <path class="st2" d="M639.59,416.7c74.81-.73,135.23-61.58,135.23-136.56,0-6.52-.47-12.93-1.35-19.21-74.81.73-135.23,61.58-135.23,136.56,0,6.52.47,12.93,1.35,19.21"/>
</svg>
